# xmcd
#
# Track frame offsets:
#	183
#	19400
#	37540
#	56583
#	70583
#	91290
#	112785
#	130973
#	148545
#	163420
#	184640
#	203138
#	225670
#	241450
#	259580
#	276195
#	295025
#	313260
#
# Disc length: 4439 seconds
#
# Revision: 0
# Processed by: cddbd v1.5.1PL0 Copyright (c) Steve Scherf et al.
# Submitted via: MusicManager 7.3.0.0 
#
DISCID=fb115512
DTITLE=Various Artist - Full Steam Ahead
DYEAR=1990
DGENRE=blues
TTITLE0=Whitney Houston - I'm Your Baby Tonight
TTITLE1=The Jeff Healey Band - Ho Long Can a Man Be Strong
TTITLE2=Daryl Hall and John Oates - So Close
TTITLE3=Alan Jackson - Chasin That Noon Rainbow
TTITLE4=Jeffrey Osborne - Only Human
TTITLE5=Carly Simon - Better Not Tell Her
TTITLE6=Urban Dance Squad - Deeper Shade Of Soul
TTITLE7=Barriy Manilow - Because It's Christmas (For All the Children)
TTITLE8=Exile - Yet
TTITLE9=Dave Stewart and the Spiritual Cowboys - Love Shines
TTITLE10=Every Mother's Nightmare - Love Can Make You Blind
TTITLE11=Geoff McBride - No Sweater Love
TTITLE12=Sydney Youngblood - If Only I Could
TTITLE13=Asleep at the Wheel - That's The Way Love Is
TTITLE14=Snap - Mary Had a Little Boy
TTITLE15=Jimmy Ryser - Rain Came
TTITLE16=Taylor Dayne - Heart of Stone
TTITLE17=Lisa Stansfield - All Around the World
EXTD=
EXTT0=
EXTT1=
EXTT2=
EXTT3=
EXTT4=
EXTT5=
EXTT6=
EXTT7=
EXTT8=
EXTT9=
EXTT10=
EXTT11=
EXTT12=
EXTT13=
EXTT14=
EXTT15=
EXTT16=
EXTT17=
PLAYORDER=
